<svg width="508" height="381" viewBox="0 0 508 381" fill="none" xmlns="http://www.w3.org/2000/svg">
<g filter="url(#filter0_d_216_10920)">
<g opacity="0.917411" clip-path="url(#clip0_216_10920)">
<mask id="mask0_216_10920" style="mask-type:luminance" maskUnits="userSpaceOnUse" x="4" y="327" width="500" height="1">
<path fill-rule="evenodd" clip-rule="evenodd" d="M4 327H504V328H4V327Z" fill="white"/>
</mask>
<g mask="url(#mask0_216_10920)">
<path fill-rule="evenodd" clip-rule="evenodd" d="M4 327.625H504V327.375H4V327.625Z" fill="#E4E4DE"/>
</g>
<path fill-rule="evenodd" clip-rule="evenodd" d="M401 343.625H454V343.375H401V343.625Z" fill="#E4E4DE"/>
<path fill-rule="evenodd" clip-rule="evenodd" d="M277 340.625H336V340.375H277V340.625Z" fill="#E4E4DE"/>
<path fill-rule="evenodd" clip-rule="evenodd" d="M384 339.625H403V339.375H384V339.625Z" fill="#E4E4DE"/>
<path fill-rule="evenodd" clip-rule="evenodd" d="M104 336.625H147V336.375H104V336.625Z" fill="#D0D9E6"/>
<path fill-rule="evenodd" clip-rule="evenodd" d="M83 336.625H98V336.375H83V336.625Z" fill="#D0D9E6"/>
<path fill-rule="evenodd" clip-rule="evenodd" d="M135 340.625H189V340.375H135V340.625Z" fill="#D0D9E6"/>
<path fill-rule="evenodd" clip-rule="evenodd" d="M47.708 0.25C44.698 0.25 42.25 2.699 42.25 5.708V277.139C42.25 280.149 44.698 282.597 47.708 282.597H240.807C243.815 282.597 246.264 280.149 246.264 277.139V5.708C246.264 2.699 243.815 0.25 240.807 0.25H47.708ZM240.807 282.847H47.708C44.56 282.847 42 280.287 42 277.139V5.708C42 2.561 44.56 0 47.708 0H240.807C243.953 0 246.514 2.561 246.514 5.708V277.139C246.514 280.287 243.953 282.847 240.807 282.847Z" fill="#D0D9E6"/>
<path fill-rule="evenodd" clip-rule="evenodd" d="M264.707 0.25C261.698 0.25 259.25 2.699 259.25 5.708V277.139C259.25 280.149 261.698 282.597 264.707 282.597H457.806C460.815 282.597 463.264 280.149 463.264 277.139V5.708C463.264 2.699 460.815 0.25 457.806 0.25H264.707ZM457.806 282.847H264.707C261.56 282.847 259 280.287 259 277.139V5.708C259 2.561 261.56 0 264.707 0H457.806C460.953 0 463.514 2.561 463.514 5.708V277.139C463.514 280.287 460.953 282.847 457.806 282.847Z" fill="#D0D9E6"/>
<path fill-rule="evenodd" clip-rule="evenodd" d="M121.873 267H61.1272C58.307 267 56 264.778 56 262.063V259.937C56 257.221 58.307 255 61.1272 255H121.873C124.692 255 127 257.221 127 259.937V262.063C127 264.778 124.692 267 121.873 267Z" fill="#E3ECFA"/>
<path fill-rule="evenodd" clip-rule="evenodd" d="M75 267H65.1752L54 327H63.8248L75 267Z" fill="#DAE2F0"/>
<path fill-rule="evenodd" clip-rule="evenodd" d="M96 267H85.746L80 327H90.254L96 267Z" fill="#DAE2F0"/>
<path fill-rule="evenodd" clip-rule="evenodd" d="M107 267H116.825L128 327H118.176L107 267Z" fill="#DAE2F0"/>
<path fill-rule="evenodd" clip-rule="evenodd" d="M201 220H435V16H201V220Z" fill="#DAE2F0"/>
<path fill-rule="evenodd" clip-rule="evenodd" d="M204 220H441V16H204V220Z" fill="#E3ECFA"/>
<path fill-rule="evenodd" clip-rule="evenodd" d="M201 223H435V219H201V223Z" fill="#DDDED8"/>
<path fill-rule="evenodd" clip-rule="evenodd" d="M208 223H445V219H208V223Z" fill="#DAE2F0"/>
<path fill-rule="evenodd" clip-rule="evenodd" d="M214 213H432V22H214V213Z" fill="#FCFEFF"/>
<path fill-rule="evenodd" clip-rule="evenodd" d="M284 213L324.904 22H352L311.096 213H284Z" fill="#FFFFFE"/>
<path fill-rule="evenodd" clip-rule="evenodd" d="M252 213L292.903 22H320L279.097 213H252Z" fill="#FFFFFE"/>
<path fill-rule="evenodd" clip-rule="evenodd" d="M219 22.5158V200.484C219 200.769 219.404 201 219.903 201H221.098C221.597 201 222 200.769 222 200.484V22.5158C222 22.2305 221.597 22 221.098 22H219.903C219.404 22 219 22.2305 219 22.5158Z" fill="#EAEAE5"/>
<path fill-rule="evenodd" clip-rule="evenodd" d="M354 213L395.327 22H406L364.673 213H354Z" fill="#FFFFFE"/>
<path fill-rule="evenodd" clip-rule="evenodd" d="M431 213H432V22H431V213Z" fill="#DAE2F0"/>
<path fill-rule="evenodd" clip-rule="evenodd" d="M444 29H442V24H443.222L444 29Z" fill="#E3ECFA"/>
<path fill-rule="evenodd" clip-rule="evenodd" d="M432 29H442V24H432V29Z" fill="#DAE2F0"/>
<path fill-rule="evenodd" clip-rule="evenodd" d="M430.981 29.461H403.949L405.123 24H430.981V29.461ZM393.348 29.461H382.266L382 24H394.522L393.348 29.461Z" fill="#E3ECFA"/>
<path fill-rule="evenodd" clip-rule="evenodd" d="M403.804 29H393L394.196 24H405L403.804 29Z" fill="#EBF3FF"/>
<path fill-rule="evenodd" clip-rule="evenodd" d="M431 29H432V24H431V29Z" fill="#CCD3E0"/>
<path fill-rule="evenodd" clip-rule="evenodd" d="M444 48H442V43H443.222L444 48Z" fill="#E3ECFA"/>
<path fill-rule="evenodd" clip-rule="evenodd" d="M432 48H442V43H432V48Z" fill="#DAE2F0"/>
<path fill-rule="evenodd" clip-rule="evenodd" d="M431.069 48.461H400.008L401.182 43H431.069V48.461ZM389.408 48.461H383.266L383 43H390.582L389.408 48.461Z" fill="#E3ECFA"/>
<path fill-rule="evenodd" clip-rule="evenodd" d="M399.803 48H389L390.197 43H401L399.803 48Z" fill="#EBF3FF"/>
<path fill-rule="evenodd" clip-rule="evenodd" d="M431 48H432V43H431V48Z" fill="#CCD3E0"/>
<path fill-rule="evenodd" clip-rule="evenodd" d="M444 67H442V62H443.222L444 67Z" fill="#E3ECFA"/>
<path fill-rule="evenodd" clip-rule="evenodd" d="M432 67H442V62H432V67Z" fill="#DAE2F0"/>
<path fill-rule="evenodd" clip-rule="evenodd" d="M431.156 67.461H396.067L397.241 62H431.156V67.461ZM385.466 67.461H384.266L384 62H386.641L385.466 67.461Z" fill="#E3ECFA"/>
<path fill-rule="evenodd" clip-rule="evenodd" d="M395.804 67H385L386.197 62H397L395.804 67Z" fill="#EBF3FF"/>
<path fill-rule="evenodd" clip-rule="evenodd" d="M431 67H432V62H431V67Z" fill="#CCD3E0"/>
<path fill-rule="evenodd" clip-rule="evenodd" d="M444 86H442V81H443.222L444 86Z" fill="#E3ECFA"/>
<path fill-rule="evenodd" clip-rule="evenodd" d="M432 86H442V81H432V86Z" fill="#DAE2F0"/>
<path fill-rule="evenodd" clip-rule="evenodd" d="M431 86H392L393.171 81H431V86Z" fill="#E3ECFA"/>
<path fill-rule="evenodd" clip-rule="evenodd" d="M391.868 86H385.256L385 81H393L391.868 86Z" fill="#EBF3FF"/>
<path fill-rule="evenodd" clip-rule="evenodd" d="M431 86H432V81H431V86Z" fill="#CCD3E0"/>
<path fill-rule="evenodd" clip-rule="evenodd" d="M444 104H442V99H443.222L444 104Z" fill="#E3ECFA"/>
<path fill-rule="evenodd" clip-rule="evenodd" d="M432 104H442V99H432V104Z" fill="#DAE2F0"/>
<path fill-rule="evenodd" clip-rule="evenodd" d="M431 104H388L389.17 99H431V104Z" fill="#E3ECFA"/>
<path fill-rule="evenodd" clip-rule="evenodd" d="M386.952 104H385.237L385 99H388L386.952 104Z" fill="#EBF3FF"/>
<path fill-rule="evenodd" clip-rule="evenodd" d="M431 104H432V99H431V104Z" fill="#CCD3E0"/>
<path fill-rule="evenodd" clip-rule="evenodd" d="M444 123H442V118H443.222L444 123Z" fill="#E3ECFA"/>
<path fill-rule="evenodd" clip-rule="evenodd" d="M432 123H442V118H432V123Z" fill="#DAE2F0"/>
<path fill-rule="evenodd" clip-rule="evenodd" d="M430 123H388.114C387.618 122.229 386.932 121.193 386.107 120.027L386 118H430V123Z" fill="#E3ECFA"/>
<path fill-rule="evenodd" clip-rule="evenodd" d="M431 123H432V118H431V123Z" fill="#CCD3E0"/>
<path fill-rule="evenodd" clip-rule="evenodd" d="M444 39H442V34H443.222L444 39Z" fill="#E3ECFA"/>
<path fill-rule="evenodd" clip-rule="evenodd" d="M432 39H442V34H432V39Z" fill="#DAE2F0"/>
<path fill-rule="evenodd" clip-rule="evenodd" d="M430.525 39.461H401.479L402.653 34H430.525V39.461ZM390.878 39.461H382.266L382 34H392.052L390.878 39.461Z" fill="#E3ECFA"/>
<path fill-rule="evenodd" clip-rule="evenodd" d="M401.804 39H391L392.196 34H403L401.804 39Z" fill="#EBF3FF"/>
<path fill-rule="evenodd" clip-rule="evenodd" d="M431 39H432V34H431V39Z" fill="#CCD3E0"/>
<path fill-rule="evenodd" clip-rule="evenodd" d="M444 58H442V53H443.222L444 58Z" fill="#E3ECFA"/>
<path fill-rule="evenodd" clip-rule="evenodd" d="M432 58H442V53H432V58Z" fill="#DAE2F0"/>
<path fill-rule="evenodd" clip-rule="evenodd" d="M430.612 58.461H397.537L398.711 53H430.612V58.461ZM386.936 58.461H383.265L383 53H388.111L386.936 58.461Z" fill="#E3ECFA"/>
<path fill-rule="evenodd" clip-rule="evenodd" d="M397.804 58H387L388.197 53H399L397.804 58Z" fill="#EBF3FF"/>
<path fill-rule="evenodd" clip-rule="evenodd" d="M431 58H432V53H431V58Z" fill="#CCD3E0"/>
<path fill-rule="evenodd" clip-rule="evenodd" d="M444 76H442V71H443.222L444 76Z" fill="#E3ECFA"/>
<path fill-rule="evenodd" clip-rule="evenodd" d="M432 76H442V71H432V76Z" fill="#DAE2F0"/>
<path fill-rule="evenodd" clip-rule="evenodd" d="M430.7 76.461H393.597L394.771 71H430.7V76.461ZM384.031 71.646L384 71H384.17L384.031 71.646Z" fill="#E3ECFA"/>
<path fill-rule="evenodd" clip-rule="evenodd" d="M393.798 76H384.241L384 71.5915L384.142 71H395L393.798 76Z" fill="#EBF3FF"/>
<path fill-rule="evenodd" clip-rule="evenodd" d="M431 76H432V71H431V76Z" fill="#CCD3E0"/>
<path fill-rule="evenodd" clip-rule="evenodd" d="M444 95H442V90H443.222L444 95Z" fill="#E3ECFA"/>
<path fill-rule="evenodd" clip-rule="evenodd" d="M432 95H442V90H432V95Z" fill="#DAE2F0"/>
<path fill-rule="evenodd" clip-rule="evenodd" d="M431 95H390L391.17 90H431V95Z" fill="#E3ECFA"/>
<path fill-rule="evenodd" clip-rule="evenodd" d="M389.792 95H385.274L385 90H391L389.792 95Z" fill="#EBF3FF"/>
<path fill-rule="evenodd" clip-rule="evenodd" d="M431 95H432V90H431V95Z" fill="#CCD3E0"/>
<path fill-rule="evenodd" clip-rule="evenodd" d="M444 114H442V109H443.222L444 114Z" fill="#E3ECFA"/>
<path fill-rule="evenodd" clip-rule="evenodd" d="M432 114H442V109H432V114Z" fill="#DAE2F0"/>
<path fill-rule="evenodd" clip-rule="evenodd" d="M431 114H386.103L386 112.09L386.731 109H431V114Z" fill="#E3ECFA"/>
<path fill-rule="evenodd" clip-rule="evenodd" d="M386.219 112L386.055 109H386.945L386.219 112Z" fill="#E9E9E4"/>
<path fill-rule="evenodd" clip-rule="evenodd" d="M431 114H432V109H431V114Z" fill="#CCD3E0"/>
<path fill-rule="evenodd" clip-rule="evenodd" d="M444 133H442V128H443.222L444 133Z" fill="#E3ECFA"/>
<path fill-rule="evenodd" clip-rule="evenodd" d="M432 133H442V128H432V133Z" fill="#DAE2F0"/>
<path fill-rule="evenodd" clip-rule="evenodd" d="M430 133H391.041C390.659 132.309 390.265 131.628 389.862 130.953C389.273 129.942 388.647 128.962 388 128H430V133Z" fill="#E3ECFA"/>
<path fill-rule="evenodd" clip-rule="evenodd" d="M431 133H432V128H431V133Z" fill="#CCD3E0"/>
<path fill-rule="evenodd" clip-rule="evenodd" d="M404 328H435V235H404V328Z" fill="#DDDED8"/>
<path fill-rule="evenodd" clip-rule="evenodd" d="M415.962 328H435V317H396L415.962 328Z" fill="#E3ECFA"/>
<path fill-rule="evenodd" clip-rule="evenodd" d="M311 328H342V235H311V328Z" fill="#DAE2F0"/>
<path fill-rule="evenodd" clip-rule="evenodd" d="M326 326H435V235H326V326Z" fill="#E3ECFA"/>
<path fill-rule="evenodd" clip-rule="evenodd" d="M345.038 328H326V317H365L345.038 328Z" fill="#E3ECFA"/>
<path fill-rule="evenodd" clip-rule="evenodd" d="M340 292H420V245H340V292Z" fill="#FCFEFF"/>
<path fill-rule="evenodd" clip-rule="evenodd" d="M340 319H420V297H340V319Z" fill="#FCFEFF"/>
<path fill-rule="evenodd" clip-rule="evenodd" d="M386.793 247H372.207C369.884 247 368 245.21 368 243H391C391 245.21 389.116 247 386.793 247Z" fill="#E4E4DE"/>
<path fill-rule="evenodd" clip-rule="evenodd" d="M386.793 299H372.207C369.884 299 368 297.209 368 295H391C391 297.209 389.117 299 386.793 299Z" fill="#E3ECFA"/>
<path fill-rule="evenodd" clip-rule="evenodd" d="M286 328H317V235H286V328Z" fill="#E3ECFA"/>
<path fill-rule="evenodd" clip-rule="evenodd" d="M298.962 328H318V317H279L298.962 328Z" fill="#E3ECFA"/>
<path fill-rule="evenodd" clip-rule="evenodd" d="M194 328H225V235H194V328Z" fill="#DAE2F0"/>
<path fill-rule="evenodd" clip-rule="evenodd" d="M208 326H317V235H208V326Z" fill="#E3ECFA"/>
<path fill-rule="evenodd" clip-rule="evenodd" d="M227.039 328H208V317H247L227.039 328Z" fill="#E3ECFA"/>
<path fill-rule="evenodd" clip-rule="evenodd" d="M223 292H303V245H223V292Z" fill="#FCFEFF"/>
<path fill-rule="evenodd" clip-rule="evenodd" d="M223 319H303V297H223V319Z" fill="#FCFEFF"/>
<path fill-rule="evenodd" clip-rule="evenodd" d="M269.793 247H255.207C252.883 247 251 245.21 251 243H274C274 245.21 272.117 247 269.793 247Z" fill="#E4E4DE"/>
<path fill-rule="evenodd" clip-rule="evenodd" d="M269.793 299H255.207C252.883 299 251 297.209 251 295H274C274 297.209 272.117 299 269.793 299Z" fill="#E3ECFA"/>
<path fill-rule="evenodd" clip-rule="evenodd" d="M208 235H434V231H208V235Z" fill="#DAE2F0"/>
<path fill-rule="evenodd" clip-rule="evenodd" d="M194 235H209V231H194V235Z" fill="#D4D5CF"/>
<path fill-rule="evenodd" clip-rule="evenodd" d="M88.6786 240.721C87.2324 204.199 85.6897 167.883 88.8479 149.564L94 146C94 146 92.8707 149.415 92.2789 205.372C91.8665 244.267 91.3855 242.154 91.3424 240.041C91.3229 239.113 91.3886 238.186 91.5804 240.721H88.6786Z" fill="#DDDED8"/>
<path fill-rule="evenodd" clip-rule="evenodd" d="M96.5274 110.729C104.223 90.5542 122.153 71.0725 141.633 63.1035C149.281 59.9744 138.262 128.776 110.533 133.211C96.9923 135.376 92.7767 170.246 90.4936 187C89.719 154.048 88.8329 130.905 96.5274 110.729Z" fill="#DDDED8"/>
<path fill-rule="evenodd" clip-rule="evenodd" d="M94.4442 161.604C99.8516 153.025 108.693 141.012 121.61 141C136.252 140.987 123.439 165.114 106.228 172.82C97.824 176.583 90.8187 188.526 89 196C89.1511 180.852 89.0358 170.183 94.4442 161.604Z" fill="#DDDED8"/>
<path fill-rule="evenodd" clip-rule="evenodd" d="M81.5085 136.292C72.0788 119.581 51.0618 102.776 28.686 95.1309C19.9013 92.1288 19.0349 141.631 66.3988 153.477C81.6959 157.302 87.8285 184.384 91 198C90.7358 171.555 90.9372 153.003 81.5085 136.292Z" fill="#DAE2F0"/>
<path fill-rule="evenodd" clip-rule="evenodd" d="M87.4865 175.934C81.4192 165.318 64.9252 160.128 50.092 161.12C44.2672 161.508 43.631 183.299 76.0262 191.714C85.8519 194.266 89.8166 211.35 91.8569 220C91.6868 203.199 93.5539 186.552 87.4865 175.934Z" fill="#DAE2F0"/>
<path fill-rule="evenodd" clip-rule="evenodd" d="M87.1369 119.14C82.4414 104.138 68.6012 90.692 55.8983 85.1338C50.9112 82.9517 49.378 107.828 76.6406 132.182C84.9094 139.57 87.5167 161.09 88.8644 172C89.4827 152.522 91.8325 134.141 87.1369 119.14Z" fill="#DAE2F0"/>
<path fill-rule="evenodd" clip-rule="evenodd" d="M90.5 255C80.5025 255 72.2403 254.271 71.6656 240.748L70 223H111L109.334 240.748C108.761 254.271 100.498 255 90.5 255Z" fill="#E3ECFA"/>
<path fill-rule="evenodd" clip-rule="evenodd" d="M109.835 230H69.1648L68 222H111L109.835 230Z" fill="#E3ECFA"/>
<path opacity="0.601028" fill-rule="evenodd" clip-rule="evenodd" d="M448 361.501C448 367.852 361.144 373 254 373C146.857 373 60 367.852 60 361.501C60 355.149 146.857 350 254 350C361.144 350 448 355.149 448 361.501Z" fill="#E3ECFA"/>
<path fill-rule="evenodd" clip-rule="evenodd" d="M76.9904 63L76 43.0486L77.0096 43L78 62.9514L76.9904 63Z" fill="#3F8CFF"/>
<path fill-rule="evenodd" clip-rule="evenodd" d="M77.3252 80L77 70.0483L77.6748 70L78 79.9507L77.3252 80Z" fill="#3F8CFF"/>
<path fill-rule="evenodd" clip-rule="evenodd" d="M90.5239 247C89.579 247 88.801 246.257 88.755 245.311L78.0041 23.8621C77.9551 22.8494 78.7611 22 79.7729 22H379.477C380.421 22 381.199 22.7432 381.245 23.6898L391.996 245.139C392.045 246.152 391.239 247 390.227 247H90.5239Z" fill="#3F8CFF"/>
<path fill-rule="evenodd" clip-rule="evenodd" d="M370.764 243.367H94.1831C93.2371 243.367 92.4581 242.625 92.4131 241.681L82.0021 27.859C81.9531 26.848 82.7601 26 83.7731 26H376.583C377.529 26 378.308 26.742 378.354 27.687L382.614 115.172C380.533 112.555 378.201 110.113 375.958 108.804C374.359 107.747 372.465 107.085 370.405 106.972C370.264 106.964 370.124 106.957 369.983 106.95C366.345 103.437 367.062 96.145 368.161 90.881L357.125 97.034C357.963 100.565 358.058 104.842 355.181 106.838C354.631 106.87 354.11 106.907 353.623 106.951C351.816 107.115 350.041 107.376 348.459 107.655C348.06 107.726 347.668 107.819 347.286 107.934C345.733 108.366 344.016 109.235 342.154 110.637C334.511 116.393 328.836 128.587 328.836 128.587L330.648 129.581C328.965 131.435 327.216 133.247 325.407 135.026C323.426 136.963 321.441 138.802 319.285 140.818C319.227 140.824 319.167 140.83 319.103 140.834C319.033 140.838 318.96 140.84 318.884 140.84C318.414 140.84 317.834 140.764 317.209 140.605C316.193 140.353 315.076 139.936 313.94 139.412C314.005 138.166 314.062 136.926 314.11 135.705L323.24 135.406C323.769 130.497 323.045 122.322 321.821 113.854C320.776 104.985 318.986 94.886 317.08 84.597L307.971 85.175L305.714 38.812C305.689 38.324 305.261 37.948 304.801 37.948C304.789 37.948 304.776 37.949 304.763 37.949C304.263 37.974 303.877 38.399 303.901 38.899L306.16 85.29L268.835 87.661C268.95 88.166 269.064 88.671 269.177 89.174H269.176C269.178 89.182 269.18 89.19 269.182 89.199C269.361 89.997 269.537 90.793 269.711 91.586C271.162 98.288 272.283 104.824 273.094 111.073L267.009 110.12C267.106 128.098 265.173 144.556 262.027 157.49L310.115 166.508L313.233 230.556C313.257 231.041 313.658 231.419 314.138 231.419L314.183 231.418C314.683 231.394 315.07 230.968 315.046 230.468L311.66 160.937C312.334 157.429 312.867 153.226 313.273 148.795C313.595 148.943 313.925 149.085 314.264 149.222C315.499 149.71 316.871 150.12 318.441 150.3C318.877 150.351 319.334 150.379 319.805 150.379C321.017 150.379 322.324 150.192 323.614 149.728L324.287 149.485L325.11 148.808C327.429 146.899 330.053 144.817 332.485 142.634C334.616 140.751 336.699 138.781 338.699 136.71C338.712 137.792 338.735 138.913 338.769 140.077C338.782 140.63 338.802 141.2 338.825 141.784C339.11 149.631 339.858 159.284 341.307 171.14H348.78L346.209 179.771L351.579 181.37C351.557 181.517 351.534 181.664 351.512 181.811L357.296 183.072L357.573 183.155C360.716 197.592 366.015 221.887 369.587 238.049C370.005 239.943 370.4 241.726 370.764 243.367ZM164.008 209.112L165.052 230.556C165.077 231.041 165.477 231.419 165.958 231.419L166.003 231.418C166.503 231.394 166.889 230.968 166.865 230.468L165.816 208.928L191.162 206.353C191.034 195.056 185.224 168.82 181.779 158.987L163.491 161.16L161.924 128.986L167.612 128.68C165.054 111.674 163.194 95.337 162.65 80.259L159.558 80.378L157.534 38.812C157.509 38.324 157.089 37.948 156.622 37.948C156.609 37.948 156.597 37.949 156.584 37.949C156.084 37.974 155.697 38.399 155.721 38.899L157.744 80.448L115.468 82.08C115.364 95.911 116.535 114.587 119.319 131.283L160.112 129.084L161.684 161.375L135.062 164.538C140.03 182.056 140.238 197.933 141.616 211.388L164.008 209.112ZM179.885 95.373L179.883 143.501L228.428 146.43L228.43 98.302L179.885 95.373ZM387.367 212.804C386.013 205.059 384.64 197.428 383.443 190.859L386.341 191.722L387.367 212.804ZM383.867 140.919L379.281 139.919C379.324 138.491 379.38 137.035 379.453 135.558L380.222 134.773C381.549 136.758 382.784 138.77 383.861 140.801L383.867 140.919ZM319.934 140.652L320.052 140.579C320.02 140.604 319.981 140.628 319.934 140.652Z" fill="#F4F9FD"/>
<path d="M108.706 45.1122L106.102 45.1576L106.078 43.7898L112.797 43.6726L112.821 45.0403L110.217 45.0858L110.342 52.2127L108.83 52.2391L108.706 45.1122ZM112.174 49.3003C112.166 48.8444 112.239 48.431 112.392 48.0603C112.554 47.6814 112.772 47.3576 113.048 47.0887C113.323 46.8199 113.651 46.6101 114.033 46.4594C114.414 46.3087 114.821 46.2296 115.253 46.2221C115.685 46.2145 116.094 46.2794 116.48 46.4167C116.867 46.554 117.202 46.7521 117.487 47.0112C117.771 47.2703 117.997 47.5864 118.164 47.9596C118.338 48.3246 118.429 48.735 118.437 49.191C118.445 49.6469 118.368 50.0643 118.207 50.4432C118.053 50.8139 117.839 51.1337 117.564 51.4025C117.288 51.6714 116.96 51.8812 116.578 52.0318C116.197 52.1825 115.79 52.2616 115.358 52.2692C114.926 52.2767 114.517 52.2118 114.131 52.0746C113.744 51.9373 113.409 51.7391 113.124 51.48C112.84 51.221 112.61 50.9089 112.436 50.5439C112.269 50.1708 112.182 49.7562 112.174 49.3003ZM113.614 49.2752C113.618 49.4991 113.657 49.7145 113.733 49.9212C113.817 50.1277 113.932 50.3098 114.079 50.4672C114.233 50.6245 114.416 50.7494 114.625 50.8417C114.835 50.9341 115.072 50.978 115.336 50.9734C115.6 50.9688 115.835 50.9166 116.041 50.817C116.247 50.7174 116.421 50.5864 116.562 50.4239C116.711 50.2612 116.82 50.0753 116.889 49.8661C116.965 49.6567 117.001 49.4401 116.997 49.2161C116.993 48.9921 116.95 48.7769 116.866 48.5703C116.79 48.3636 116.675 48.1816 116.52 48.0242C116.374 47.8668 116.195 47.7419 115.986 47.6495C115.776 47.5572 115.539 47.5133 115.275 47.5179C115.011 47.5225 114.776 47.5746 114.57 47.6742C114.364 47.7738 114.186 47.905 114.037 48.0676C113.896 48.2301 113.787 48.416 113.71 48.6254C113.642 48.8346 113.61 49.0512 113.614 49.2752ZM123.369 43.488L126.717 43.4296C127.277 43.4198 127.818 43.4984 128.341 43.6653C128.864 43.8242 129.328 44.0761 129.735 44.4211C130.141 44.766 130.468 45.2044 130.718 45.7361C130.967 46.2598 131.098 46.8817 131.11 47.6015C131.123 48.3294 130.994 48.9638 130.723 49.5046C130.461 50.0373 130.112 50.4834 129.679 50.843C129.253 51.1945 128.773 51.4629 128.24 51.6482C127.715 51.8254 127.197 51.9185 126.685 51.9274L123.518 51.9827L123.369 43.488ZM126.133 50.5689C126.605 50.5606 127.048 50.5009 127.462 50.3896C127.884 50.2703 128.249 50.0959 128.557 49.8664C128.865 49.629 129.104 49.3288 129.274 48.9658C129.451 48.5947 129.536 48.1491 129.527 47.6292C129.518 47.1173 129.43 46.6787 129.264 46.3136C129.097 45.9484 128.868 45.6564 128.576 45.4374C128.292 45.2104 127.953 45.0483 127.559 44.9511C127.174 44.8458 126.749 44.7972 126.285 44.8053L124.905 44.8294L125.005 50.5885L126.133 50.5689ZM132.151 48.9516C132.143 48.4957 132.216 48.0823 132.37 47.7116C132.531 47.3327 132.75 47.0088 133.025 46.74C133.3 46.4712 133.629 46.2614 134.01 46.1107C134.392 45.96 134.798 45.8809 135.23 45.8734C135.662 45.8658 136.071 45.9307 136.458 46.068C136.844 46.2053 137.18 46.4034 137.464 46.6625C137.749 46.9216 137.974 47.2377 138.141 47.6108C138.315 47.9759 138.407 48.3863 138.414 48.8423C138.422 49.2982 138.346 49.7156 138.184 50.0945C138.031 50.4652 137.816 50.785 137.541 51.0538C137.266 51.3227 136.937 51.5325 136.556 51.6831C136.174 51.8338 135.768 51.9129 135.336 51.9205C134.904 51.928 134.495 51.8631 134.108 51.7259C133.722 51.5886 133.386 51.3904 133.102 51.1313C132.817 50.8723 132.588 50.5602 132.413 50.1952C132.247 49.8221 132.159 49.4075 132.151 48.9516ZM133.591 48.9265C133.595 49.1504 133.635 49.3658 133.711 49.5725C133.794 49.779 133.909 49.9611 134.056 50.1185C134.211 50.2758 134.393 50.4007 134.603 50.493C134.812 50.5854 135.049 50.6293 135.313 50.6247C135.577 50.6201 135.812 50.5679 136.019 50.4683C136.225 50.3687 136.399 50.2377 136.54 50.0752C136.689 49.9125 136.798 49.7266 136.866 49.5174C136.942 49.308 136.979 49.0914 136.975 48.8674C136.971 48.6434 136.927 48.4282 136.843 48.2216C136.768 48.0149 136.653 47.8329 136.498 47.6755C136.351 47.5181 136.173 47.3932 135.963 47.3008C135.754 47.2085 135.517 47.1646 135.253 47.1692C134.989 47.1738 134.754 47.2259 134.547 47.3255C134.341 47.4251 134.163 47.5563 134.014 47.7189C133.873 47.8814 133.764 48.0673 133.688 48.2767C133.62 48.4859 133.587 48.7025 133.591 48.9265Z" fill="#3F8CFF"/>
<path d="M164.108 44.0336L165.62 44.0072L165.768 52.5019L164.256 52.5283L164.108 44.0336ZM167.399 46.7126L168.767 46.6887L168.783 47.6126L168.807 47.6122C168.938 47.3218 169.141 47.0702 169.418 46.8574C169.694 46.6365 170.072 46.5219 170.552 46.5135C170.936 46.5068 171.261 46.5652 171.527 46.6885C171.801 46.8118 172.024 46.9759 172.196 47.181C172.367 47.386 172.492 47.6239 172.568 47.8946C172.645 48.1653 172.686 48.4486 172.691 48.7445L172.755 52.38L171.315 52.4051L171.264 49.4896C171.261 49.3296 171.25 49.1538 171.231 48.9621C171.211 48.7624 171.164 48.5792 171.089 48.4125C171.022 48.2376 170.916 48.0954 170.77 47.986C170.624 47.8685 170.426 47.8119 170.179 47.8163C169.939 47.8204 169.735 47.864 169.569 47.9469C169.41 48.0297 169.276 48.1401 169.166 48.278C169.065 48.4158 168.992 48.5731 168.947 48.7499C168.902 48.9267 168.881 49.1111 168.884 49.3031L168.939 52.4466L167.499 52.4717L167.399 46.7126ZM177.923 43.7925L180.778 43.7426C181.186 43.7355 181.579 43.7687 181.956 43.8421C182.342 43.9154 182.68 44.0455 182.971 44.2324C183.262 44.4114 183.495 44.6594 183.668 44.9764C183.85 45.2853 183.945 45.6757 183.953 46.1476C183.962 46.6835 183.878 47.1171 183.7 47.4482C183.521 47.7794 183.278 48.0397 182.969 48.2291C182.66 48.4105 182.298 48.5368 181.884 48.6081C181.477 48.6792 181.049 48.7187 180.601 48.7265L179.522 48.7453L179.583 52.2608L178.071 52.2872L177.923 43.7925ZM180.411 47.4336C180.627 47.4298 180.851 47.4179 181.082 47.3979C181.314 47.3778 181.525 47.3262 181.716 47.2428C181.914 47.1593 182.072 47.0366 182.189 46.8745C182.315 46.7123 182.375 46.4872 182.37 46.1992C182.365 45.9353 182.305 45.7283 182.191 45.5783C182.076 45.4202 181.93 45.3028 181.752 45.2259C181.575 45.141 181.378 45.0884 181.162 45.0682C180.945 45.0479 180.737 45.0396 180.537 45.043L179.457 45.0619L179.499 47.4495L180.411 47.4336ZM185.173 46.4023L186.613 46.3772L186.629 47.2891L186.653 47.2887C186.807 46.9499 187.031 46.686 187.323 46.4968C187.616 46.3077 187.955 46.2098 188.338 46.2031C188.426 46.2015 188.511 46.2081 188.591 46.2227C188.679 46.2371 188.767 46.2556 188.856 46.2781L188.88 47.6698C188.76 47.6399 188.639 47.618 188.519 47.6041C188.407 47.5821 188.294 47.5721 188.182 47.574C187.846 47.5799 187.576 47.6486 187.37 47.7802C187.172 47.9037 187.018 48.0464 186.909 48.2083C186.808 48.3701 186.739 48.5313 186.702 48.692C186.672 48.8526 186.659 48.9728 186.66 49.0528L186.714 52.1363L185.274 52.1615L185.173 46.4023ZM189.388 49.2092C189.38 48.7533 189.453 48.3399 189.607 47.9692C189.768 47.5903 189.986 47.2665 190.262 46.9976C190.537 46.7288 190.866 46.519 191.247 46.3683C191.628 46.2177 192.035 46.1385 192.467 46.131C192.899 46.1235 193.308 46.1883 193.695 46.3256C194.081 46.4629 194.417 46.6611 194.701 46.9201C194.986 47.1792 195.211 47.4953 195.378 47.8685C195.552 48.2335 195.643 48.644 195.651 49.0999C195.659 49.5558 195.583 49.9732 195.421 50.3521C195.268 50.7228 195.053 51.0426 194.778 51.3115C194.502 51.5803 194.174 51.7901 193.793 51.9408C193.411 52.0914 193.004 52.1705 192.573 52.1781C192.141 52.1856 191.731 52.1208 191.345 51.9835C190.958 51.8462 190.623 51.648 190.338 51.389C190.054 51.1299 189.824 50.8178 189.65 50.4528C189.483 50.0797 189.396 49.6651 189.388 49.2092ZM190.828 49.1841C190.832 49.408 190.872 49.6234 190.947 49.8301C191.031 50.0367 191.146 50.2187 191.293 50.3761C191.448 50.5335 191.63 50.6583 191.84 50.7507C192.049 50.843 192.286 50.8869 192.55 50.8823C192.814 50.8777 193.049 50.8256 193.255 50.726C193.462 50.6263 193.635 50.4953 193.777 50.3328C193.926 50.1702 194.034 49.9842 194.103 49.775C194.179 49.5657 194.215 49.349 194.211 49.125C194.208 48.9011 194.164 48.6858 194.08 48.4792C194.005 48.2725 193.889 48.0905 193.735 47.9332C193.588 47.7757 193.41 47.6508 193.2 47.5584C192.99 47.4661 192.754 47.4222 192.49 47.4268C192.226 47.4314 191.991 47.4835 191.784 47.5831C191.578 47.6828 191.4 47.8139 191.251 47.9765C191.11 48.139 191.001 48.3249 190.925 48.5343C190.856 48.7435 190.824 48.9601 190.828 49.1841ZM202.876 46.0933L202.968 51.3365C202.977 51.8565 202.921 52.3255 202.8 52.7437C202.68 53.1698 202.486 53.5293 202.219 53.822C201.96 54.1225 201.628 54.3564 201.223 54.5235C200.818 54.6906 200.335 54.779 199.775 54.7888C199.239 54.7981 198.73 54.739 198.248 54.6114C197.766 54.4838 197.318 54.2436 196.903 53.8908L197.747 52.6999C198.039 52.9588 198.343 53.1575 198.657 53.2961C198.972 53.4346 199.333 53.5003 199.741 53.4932C200.085 53.4872 200.372 53.4342 200.602 53.3341C200.84 53.234 201.026 53.0987 201.159 52.9283C201.3 52.7579 201.397 52.5521 201.448 52.3112C201.508 52.0781 201.536 51.8176 201.531 51.5296L201.523 51.1097L201.499 51.1101C201.296 51.3937 201.024 51.6105 200.683 51.7605C200.341 51.9025 199.99 51.9766 199.63 51.9829C199.198 51.9904 198.805 51.9213 198.451 51.7754C198.096 51.6216 197.788 51.4149 197.528 51.1555C197.275 50.8958 197.078 50.5872 196.935 50.2296C196.793 49.8721 196.718 49.4893 196.711 49.0814C196.704 48.6574 196.761 48.2604 196.883 47.8902C197.004 47.52 197.187 47.1968 197.43 46.9205C197.673 46.6442 197.965 46.4271 198.306 46.2691C198.656 46.103 199.054 46.016 199.502 46.0082C199.91 46.0011 200.291 46.0744 200.646 46.2283C201.001 46.3821 201.285 46.6332 201.499 46.9815L201.523 46.9811L201.508 46.1172L202.876 46.0933ZM199.825 47.2988C199.569 47.3032 199.338 47.3513 199.131 47.4429C198.925 47.5265 198.747 47.6456 198.597 47.8003C198.456 47.9468 198.343 48.1288 198.259 48.3463C198.182 48.5556 198.146 48.7883 198.151 49.0443C198.155 49.2762 198.199 49.4915 198.282 49.6901C198.374 49.8885 198.497 50.0624 198.651 50.2117C198.806 50.361 198.988 50.4779 199.198 50.5622C199.407 50.6466 199.632 50.6867 199.872 50.6825C200.136 50.6779 200.371 50.6298 200.577 50.5381C200.792 50.4464 200.97 50.3273 201.111 50.1808C201.261 50.0261 201.373 49.8441 201.45 49.6348C201.526 49.4254 201.562 49.2007 201.558 48.9608C201.549 48.4569 201.39 48.0516 201.081 47.7449C200.771 47.4383 200.353 47.2896 199.825 47.2988ZM204.506 46.0649L205.946 46.0397L205.962 46.9516L205.986 46.9512C206.14 46.6125 206.364 46.3485 206.656 46.1594C206.949 45.9702 207.288 45.8723 207.671 45.8656C207.759 45.8641 207.844 45.8706 207.924 45.8852C208.012 45.8997 208.1 45.9181 208.189 45.9406L208.213 47.3324C208.093 47.3025 207.972 47.2806 207.852 47.2667C207.74 47.2446 207.627 47.2346 207.515 47.2365C207.179 47.2424 206.909 47.3111 206.703 47.4428C206.505 47.5662 206.351 47.7089 206.242 47.8709C206.141 48.0327 206.072 48.1939 206.035 48.3546C206.005 48.5151 205.992 48.6354 205.993 48.7153L206.047 51.7989L204.607 51.824L204.506 46.0649ZM210.17 49.3505C210.225 49.7816 210.399 50.1147 210.691 50.3496C210.983 50.5845 211.333 50.6984 211.741 50.6913C212.101 50.685 212.4 50.6078 212.638 50.4596C212.883 50.3033 213.096 50.1116 213.276 49.8844L214.321 50.6463C213.992 51.0681 213.622 51.3706 213.209 51.5538C212.796 51.7371 212.361 51.8327 211.906 51.8406C211.474 51.8482 211.064 51.7833 210.678 51.646C210.291 51.5087 209.956 51.3106 209.671 51.0515C209.387 50.7924 209.157 50.4804 208.983 50.1154C208.816 49.7422 208.729 49.3277 208.721 48.8718C208.713 48.4158 208.786 48.0025 208.94 47.6318C209.101 47.2529 209.319 46.929 209.595 46.6602C209.87 46.3913 210.198 46.1816 210.58 46.0309C210.961 45.8802 211.368 45.8011 211.8 45.7936C212.2 45.7866 212.565 45.8522 212.896 45.9905C213.234 46.1206 213.521 46.3156 213.758 46.5755C214.002 46.8353 214.192 47.16 214.327 47.5497C214.47 47.9313 214.545 48.374 214.554 48.878L214.561 49.2739L210.17 49.3505ZM213.103 48.2192C213.087 47.7954 212.949 47.4657 212.689 47.2303C212.429 46.9868 212.071 46.869 211.615 46.8769C211.183 46.8845 210.841 47.0145 210.589 47.2669C210.346 47.5192 210.2 47.8538 210.151 48.2707L213.103 48.2192ZM218.948 47.409C218.661 47.022 218.282 46.8326 217.81 46.8408C217.618 46.8442 217.431 46.8954 217.248 46.9946C217.066 47.0938 216.977 47.2514 216.981 47.4674C216.984 47.6434 217.062 47.77 217.215 47.8474C217.369 47.9247 217.562 47.9893 217.795 48.0413C218.028 48.0932 218.277 48.1489 218.542 48.2083C218.815 48.2595 219.068 48.3471 219.302 48.471C219.537 48.587 219.731 48.7516 219.887 48.9649C220.043 49.1782 220.124 49.4728 220.131 49.8488C220.137 50.1927 220.066 50.486 219.918 50.7286C219.778 50.9631 219.589 51.1544 219.352 51.3026C219.122 51.4506 218.86 51.5592 218.565 51.6284C218.271 51.6975 217.975 51.7347 217.679 51.7398C217.231 51.7477 216.818 51.6909 216.44 51.5694C216.062 51.448 215.722 51.2219 215.42 50.8911L216.364 49.9745C216.552 50.1793 216.751 50.3478 216.961 50.4802C217.179 50.6044 217.44 50.6639 217.744 50.6585C217.848 50.6567 217.956 50.6428 218.068 50.6169C218.179 50.5909 218.283 50.5491 218.378 50.4915C218.473 50.4338 218.547 50.3645 218.602 50.2835C218.664 50.1944 218.695 50.0939 218.693 49.9819C218.689 49.7819 218.611 49.6353 218.457 49.5419C218.303 49.4486 218.11 49.376 217.877 49.324C217.644 49.2641 217.391 49.2125 217.118 49.1692C216.853 49.1179 216.604 49.0382 216.37 48.9303C216.136 48.8143 215.941 48.6537 215.786 48.4484C215.63 48.2431 215.549 47.9565 215.542 47.5885C215.537 47.2686 215.596 46.9915 215.72 46.7573C215.852 46.5149 216.024 46.3159 216.238 46.1602C216.451 46.0044 216.697 45.8881 216.976 45.8112C217.254 45.7343 217.538 45.6934 217.826 45.6884C218.21 45.6817 218.591 45.743 218.969 45.8724C219.347 45.9939 219.655 46.2125 219.893 46.5284L218.948 47.409ZM224.279 47.316C223.992 46.9289 223.613 46.7395 223.141 46.7478C222.949 46.7511 222.762 46.8024 222.58 46.9016C222.397 47.0008 222.308 47.1584 222.312 47.3743C222.315 47.5503 222.393 47.677 222.546 47.7543C222.7 47.8316 222.893 47.8963 223.126 47.9482C223.359 48.0002 223.608 48.0558 223.873 48.1152C224.146 48.1664 224.399 48.254 224.634 48.378C224.868 48.4939 225.063 48.6585 225.218 48.8718C225.374 49.0852 225.455 49.3798 225.462 49.7557C225.468 50.0997 225.397 50.393 225.249 50.6356C225.109 50.87 224.921 51.0614 224.683 51.2095C224.454 51.3576 224.192 51.4662 223.897 51.5353C223.602 51.6045 223.306 51.6416 223.01 51.6468C222.563 51.6546 222.149 51.5978 221.771 51.4764C221.393 51.355 221.053 51.1289 220.751 50.7981L221.695 49.8815C221.883 50.0862 222.082 50.2548 222.292 50.3871C222.511 50.5113 222.772 50.5708 223.076 50.5655C223.18 50.5637 223.287 50.5498 223.399 50.5238C223.511 50.4979 223.614 50.4561 223.709 50.3984C223.804 50.3407 223.879 50.2714 223.933 50.1905C223.996 50.1014 224.026 50.0008 224.024 49.8888C224.02 49.6889 223.942 49.5422 223.788 49.4489C223.635 49.3556 223.441 49.2829 223.208 49.231C222.975 49.171 222.722 49.1194 222.45 49.0762C222.185 49.0248 221.935 48.9451 221.701 48.8372C221.467 48.7213 221.272 48.5607 221.117 48.3553C220.961 48.15 220.88 47.8634 220.874 47.4955C220.868 47.1755 220.927 46.8984 221.051 46.6642C221.183 46.4219 221.356 46.2228 221.569 46.0671C221.782 45.9114 222.028 45.795 222.307 45.7182C222.586 45.6413 222.869 45.6003 223.157 45.5953C223.541 45.5886 223.922 45.65 224.3 45.7794C224.678 45.9008 224.986 46.1195 225.224 46.4354L224.279 47.316Z" fill="#3F8CFF"/>
<path d="M241.332 43.9599L242.844 43.9335L242.992 52.4282L241.48 52.4546L241.332 43.9599ZM244.623 46.6389L245.991 46.615L246.007 47.5388L246.031 47.5384C246.162 47.2481 246.365 46.9965 246.642 46.7836C246.918 46.5628 247.296 46.4482 247.776 46.4398C248.16 46.4331 248.485 46.4914 248.751 46.6148C249.025 46.738 249.248 46.9022 249.42 47.1072C249.591 47.3122 249.716 47.5501 249.792 47.8208C249.869 48.0915 249.91 48.3748 249.915 48.6708L249.979 52.3062L248.539 52.3314L248.488 49.4158C248.485 49.2558 248.474 49.08 248.455 48.8883C248.435 48.6886 248.388 48.5054 248.313 48.3387C248.246 48.1639 248.14 48.0217 247.994 47.9122C247.848 47.7948 247.651 47.7382 247.403 47.7425C247.163 47.7467 246.959 47.7903 246.793 47.8732C246.634 47.956 246.5 48.0663 246.391 48.2042C246.289 48.342 246.216 48.4993 246.171 48.6762C246.126 48.853 246.105 49.0374 246.108 49.2293L246.163 52.3728L244.723 52.398L244.623 46.6389ZM255.147 43.7187L258.099 43.6672C258.506 43.6601 258.899 43.6933 259.276 43.7667C259.662 43.832 260.004 43.954 260.303 44.1328C260.602 44.3116 260.842 44.5555 261.024 44.8643C261.205 45.1732 261.3 45.5676 261.309 46.0476C261.319 46.6635 261.156 47.1824 260.82 47.6043C260.491 48.0261 260.011 48.2865 259.381 48.3856L261.702 52.1016L259.879 52.1334L257.848 48.5683L256.744 48.5876L256.807 52.1871L255.295 52.2134L255.147 43.7187ZM257.897 47.2713C258.113 47.2675 258.329 47.2557 258.545 47.236C258.76 47.2082 258.956 47.1568 259.13 47.0817C259.313 46.9985 259.459 46.88 259.568 46.726C259.677 46.5641 259.729 46.3432 259.725 46.0632C259.72 45.8152 259.665 45.6162 259.558 45.466C259.452 45.3159 259.314 45.2062 259.144 45.1372C258.975 45.0601 258.786 45.0114 258.578 44.9911C258.377 44.9706 258.181 44.962 257.989 44.9653L256.681 44.9882L256.722 47.2918L257.897 47.2713ZM263.831 49.6881C263.887 50.1192 264.06 50.4522 264.353 50.6871C264.645 50.9221 264.995 51.036 265.403 51.0289C265.763 51.0226 266.061 50.9454 266.299 50.7972C266.544 50.6409 266.757 50.4491 266.937 50.222L267.982 50.9838C267.654 51.4056 267.283 51.7082 266.87 51.8914C266.457 52.0746 266.023 52.1702 265.567 52.1782C265.135 52.1857 264.726 52.1208 264.339 51.9836C263.953 51.8463 263.617 51.6481 263.333 51.389C263.048 51.13 262.819 50.8179 262.644 50.4529C262.478 50.0798 262.39 49.6652 262.382 49.2093C262.375 48.7534 262.447 48.34 262.601 47.9693C262.762 47.5904 262.981 47.2666 263.256 46.9977C263.531 46.7289 263.86 46.5191 264.241 46.3684C264.623 46.2177 265.029 46.1386 265.461 46.1311C265.861 46.1241 266.226 46.1898 266.557 46.328C266.895 46.4581 267.183 46.6531 267.419 46.913C267.664 47.1728 267.853 47.4976 267.988 47.8873C268.131 48.2688 268.207 48.7116 268.215 49.2155L268.222 49.6114L263.831 49.6881ZM266.764 48.5567C266.748 48.1329 266.611 47.8033 266.35 47.5678C266.09 47.3243 265.732 47.2065 265.276 47.2145C264.844 47.222 264.502 47.352 264.251 47.6044C264.007 47.8567 263.861 48.1913 263.812 48.6083L266.764 48.5567ZM268.73 46.2181L270.302 46.1906L271.908 50.1952L271.932 50.1948L273.409 46.1364L274.885 46.1106L272.718 51.9093L271.182 51.9361L268.73 46.2181ZM275.755 46.0954L277.195 46.0703L277.296 51.8294L275.856 51.8546L275.755 46.0954ZM275.517 44.1433C275.513 43.9113 275.594 43.7099 275.759 43.539C275.932 43.3599 276.15 43.2681 276.414 43.2635C276.678 43.2589 276.9 43.339 277.078 43.5039C277.265 43.6607 277.361 43.8631 277.365 44.111C277.369 44.359 277.281 44.5686 277.1 44.7398C276.927 44.9028 276.708 44.9866 276.444 44.9912C276.18 44.9958 275.959 44.9157 275.78 44.7508C275.609 44.5778 275.521 44.3753 275.517 44.1433ZM280.059 49.4048C280.115 49.8359 280.288 50.1689 280.581 50.4039C280.873 50.6388 281.223 50.7527 281.631 50.7456C281.991 50.7393 282.289 50.6621 282.527 50.5139C282.772 50.3576 282.985 50.1659 283.165 49.9387L284.21 50.7006C283.882 51.1224 283.511 51.4249 283.098 51.6081C282.685 51.7914 282.251 51.887 281.795 51.8949C281.363 51.9025 280.954 51.8376 280.567 51.7003C280.181 51.563 279.845 51.3649 279.561 51.1058C279.276 50.8467 279.047 50.5347 278.872 50.1697C278.706 49.7965 278.618 49.382 278.61 48.926C278.603 48.4701 278.675 48.0568 278.829 47.686C278.99 47.3072 279.209 46.9833 279.484 46.7145C279.759 46.4456 280.088 46.2358 280.469 46.0852C280.851 45.9345 281.257 45.8554 281.689 45.8478C282.089 45.8409 282.454 45.9065 282.785 46.0447C283.123 46.1749 283.411 46.3699 283.647 46.6298C283.892 46.8896 284.081 47.2143 284.216 47.604C284.359 47.9856 284.435 48.4283 284.443 48.9322L284.45 49.3282L280.059 49.4048ZM282.992 48.2735C282.976 47.8497 282.839 47.52 282.578 47.2845C282.318 47.041 281.96 46.9233 281.504 46.9312C281.072 46.9388 280.73 47.0688 280.479 47.3212C280.235 47.5735 280.089 47.9081 280.04 48.325L282.992 48.2735ZM284.958 45.9348L286.518 45.9076L287.836 49.9172L287.86 49.9168L288.953 45.8651L290.513 45.8378L291.831 49.8474L291.855 49.847L292.985 45.7947L294.436 45.7694L292.581 51.5626L291.153 51.5875L289.717 47.676L289.693 47.6764L288.55 51.633L287.062 51.659L284.958 45.9348Z" fill="#3F8CFF"/>
<path d="M325.266 43.752L328.614 43.6936C329.174 43.6838 329.715 43.7624 330.238 43.9293C330.761 44.0882 331.225 44.3401 331.632 44.6851C332.038 45.03 332.365 45.4684 332.615 46.0001C332.864 46.5238 332.995 47.1456 333.007 47.8655C333.02 48.5934 332.891 49.2278 332.62 49.7686C332.358 50.3012 332.009 50.7474 331.576 51.107C331.15 51.4585 330.67 51.7269 330.137 51.9122C329.612 52.0894 329.094 52.1825 328.582 52.1914L325.415 52.2467L325.266 43.752ZM328.03 50.8328C328.502 50.8246 328.945 50.7649 329.359 50.6536C329.781 50.5342 330.146 50.3598 330.454 50.1304C330.762 49.893 331.001 49.5928 331.171 49.2298C331.348 48.8586 331.433 48.4131 331.423 47.8932C331.415 47.3813 331.327 46.9427 331.16 46.5776C330.994 46.2124 330.765 45.9204 330.473 45.7014C330.189 45.4744 329.85 45.3122 329.456 45.2151C329.071 45.1098 328.646 45.0612 328.182 45.0693L326.802 45.0934L326.902 50.8525L328.03 50.8328ZM334.048 49.2156C334.04 48.7596 334.113 48.3463 334.267 47.9756C334.428 47.5967 334.647 47.2728 334.922 47.004C335.197 46.7351 335.526 46.5254 335.907 46.3747C336.289 46.224 336.695 46.1449 337.127 46.1374C337.559 46.1298 337.968 46.1947 338.355 46.332C338.741 46.4693 339.077 46.6674 339.361 46.9265C339.646 47.1856 339.871 47.5017 340.038 47.8748C340.212 48.2398 340.304 48.6503 340.311 49.1062C340.319 49.5622 340.243 49.9796 340.081 50.3585C339.928 50.7292 339.713 51.049 339.438 51.3178C339.163 51.5867 338.834 51.7964 338.453 51.9471C338.071 52.0978 337.665 52.1769 337.233 52.1844C336.801 52.192 336.392 52.1271 336.005 51.9898C335.619 51.8526 335.283 51.6544 334.999 51.3953C334.714 51.1362 334.485 50.8242 334.31 50.4592C334.144 50.086 334.056 49.6715 334.048 49.2156ZM335.488 49.1904C335.492 49.4144 335.532 49.6297 335.608 49.8365C335.691 50.043 335.806 50.225 335.953 50.3825C336.108 50.5398 336.29 50.6647 336.5 50.757C336.709 50.8494 336.946 50.8933 337.21 50.8886C337.474 50.884 337.709 50.8319 337.915 50.7323C338.122 50.6327 338.296 50.5016 338.437 50.3392C338.586 50.1765 338.695 49.9906 338.763 49.7814C338.839 49.572 338.876 49.3553 338.872 49.1314C338.868 48.9074 338.824 48.6921 338.74 48.4856C338.665 48.2789 338.55 48.0968 338.395 47.9395C338.248 47.7821 338.07 47.6572 337.86 47.5648C337.651 47.4724 337.414 47.4286 337.15 47.4332C336.886 47.4378 336.651 47.4899 336.444 47.5895C336.238 47.6891 336.06 47.8202 335.911 47.9829C335.77 48.1454 335.661 48.3313 335.585 48.5407C335.517 48.7499 335.484 48.9665 335.488 49.1904ZM341.609 46.2032L342.977 46.1793L342.993 47.1031L343.017 47.1027C343.148 46.8124 343.352 46.5608 343.628 46.3479C343.904 46.1271 344.282 46.0125 344.762 46.0041C345.146 45.9974 345.471 46.0557 345.737 46.1791C346.012 46.3023 346.235 46.4665 346.406 46.6715C346.578 46.8765 346.702 47.1144 346.779 47.3851C346.855 47.6558 346.896 47.9391 346.901 48.2351L346.965 51.8706L345.525 51.8957L345.474 48.9801C345.471 48.8202 345.46 48.6443 345.441 48.4526C345.422 48.2529 345.374 48.0697 345.299 47.903C345.232 47.7282 345.126 47.586 344.98 47.4765C344.834 47.3591 344.637 47.3025 344.389 47.3068C344.149 47.311 343.946 47.3546 343.779 47.4375C343.621 47.5203 343.486 47.6306 343.377 47.7685C343.275 47.9063 343.202 48.0636 343.157 48.2405C343.112 48.4173 343.091 48.6017 343.095 48.7936L343.15 51.9371L341.71 51.9623L341.609 46.2032ZM349.71 49.4463C349.765 49.8774 349.939 50.2104 350.231 50.4453C350.523 50.6803 350.873 50.7942 351.281 50.7871C351.641 50.7808 351.94 50.7035 352.177 50.5554C352.423 50.3991 352.635 50.2073 352.815 49.9802L353.861 50.742C353.532 51.1638 353.161 51.4663 352.749 51.6496C352.336 51.8328 351.901 51.9284 351.445 51.9364C351.013 51.9439 350.604 51.879 350.218 51.7418C349.831 51.6045 349.496 51.4063 349.211 51.1472C348.927 50.8882 348.697 50.5761 348.523 50.2111C348.356 49.838 348.269 49.4234 348.261 48.9675C348.253 48.5116 348.326 48.0982 348.48 47.7275C348.641 47.3486 348.859 47.0248 349.135 46.7559C349.41 46.4871 349.738 46.2773 350.12 46.1266C350.501 45.9759 350.908 45.8968 351.34 45.8893C351.74 45.8823 352.105 45.9479 352.435 46.0862C352.774 46.2163 353.061 46.4113 353.298 46.6712C353.542 46.931 353.732 47.2557 353.867 47.6455C354.01 48.027 354.085 48.4698 354.094 48.9737L354.101 49.3696L349.71 49.4463ZM352.642 48.3149C352.627 47.8911 352.489 47.5615 352.229 47.326C351.969 47.0825 351.611 46.9647 351.155 46.9727C350.723 46.9802 350.381 47.1102 350.129 47.3626C349.886 47.6149 349.74 47.9495 349.691 48.3664L352.642 48.3149Z" fill="#3F8CFF"/>
<path fill-rule="evenodd" clip-rule="evenodd" d="M166.104 231C165.629 231 165.234 230.623 165.21 230.139L156.001 38.9485C155.977 38.4497 156.359 38.0258 156.853 38.0008C157.327 37.9799 157.765 38.3609 157.79 38.8617L166.999 230.051C167.023 230.55 166.642 230.975 166.148 230.999L166.104 231Z" fill="#3F8CFF"/>
<path fill-rule="evenodd" clip-rule="evenodd" d="M314.103 231C313.629 231 313.234 230.623 313.21 230.139L304.001 38.9485C303.977 38.4497 304.358 38.0258 304.852 38.0008C305.319 37.9799 305.764 38.3609 305.79 38.8617L314.999 230.051C315.023 230.55 314.641 230.975 314.147 230.999L314.103 231Z" fill="#3F8CFF"/>
<path fill-rule="evenodd" clip-rule="evenodd" d="M240.104 231C239.629 231 239.234 230.623 239.21 230.139L230.001 38.9485C229.977 38.4497 230.358 38.0258 230.853 38.0008C231.34 37.9799 231.765 38.3619 231.79 38.8617L240.999 230.051C241.023 230.55 240.641 230.975 240.147 230.999L240.104 231Z" fill="#3F8CFF"/>
<path fill-rule="evenodd" clip-rule="evenodd" d="M371.093 59H92.9072C92.4061 59 92 58.5524 92 58C92 57.4476 92.4061 57 92.9072 57H371.093C371.594 57 372 57.4476 372 58C372 58.5524 371.594 59 371.093 59Z" fill="#3F8CFF"/>
<path fill-rule="evenodd" clip-rule="evenodd" d="M118.857 131.024C116.073 114.328 114.902 95.652 115.006 81.821L157.282 80.189L159.65 128.825L118.857 131.024ZM161.462 128.727L159.096 80.119L162.188 80C162.732 95.078 164.592 111.415 167.15 128.421L161.462 128.727Z" fill="#DADFE4"/>
<path fill-rule="evenodd" clip-rule="evenodd" d="M160.266 129L158 80.0704L159.736 80L162 128.901L160.266 129Z" fill="#B0C9DF"/>
<path fill-rule="evenodd" clip-rule="evenodd" d="M168 126.397L119.939 129C117.168 112.312 115.439 96.1381 115 80.6037L163.062 78C163.602 93.0716 165.453 109.401 168 126.397Z" fill="#12499A"/>
<path fill-rule="evenodd" clip-rule="evenodd" d="M228.998 146L180 143.074L180.002 95L229 97.9257L228.998 146Z" fill="#DADFE4"/>
<path fill-rule="evenodd" clip-rule="evenodd" d="M227.43 145L179 142.091L179.57 94L228 96.9082L227.43 145Z" fill="#FFFFFE"/>
<path fill-rule="evenodd" clip-rule="evenodd" d="M313.934 135.531C313.964 134.761 313.991 133.998 314.014 133.244L322.324 132.816C322.874 127.716 322.523 121.132 321.645 113.68C322.869 122.148 323.593 130.323 323.064 135.232L313.934 135.531ZM273.292 110.957L272.918 110.899C272.107 104.65 270.986 98.114 269.535 91.412C271.013 98.154 272.303 104.708 273.292 110.957Z" fill="#DADFE4"/>
<path fill-rule="evenodd" clip-rule="evenodd" d="M275.719 135L322.736 132.575C323.942 121.364 320.822 103.006 317.309 84L269 87.0755C273.026 104.857 275.93 121.503 275.719 135Z" fill="#6D5DD3"/>
<path fill-rule="evenodd" clip-rule="evenodd" d="M141.554 211.401C140.176 197.946 139.968 182.069 135 164.551L161.622 161.388L163.946 209.125L141.554 211.401ZM165.754 208.941L163.429 161.173L181.717 159C185.162 168.833 190.972 195.069 191.1 206.366L165.754 208.941Z" fill="#DADFE4"/>
<path fill-rule="evenodd" clip-rule="evenodd" d="M164.25 209L162 161.215L163.749 161L166 208.816L164.25 209Z" fill="#B0C9DF"/>
<path fill-rule="evenodd" clip-rule="evenodd" d="M143.153 210L190.943 204.843C191.534 193.669 187.432 175.645 182.905 157L135 162.652C138.879 180.103 142.63 196.615 143.153 210Z" fill="#FDC748"/>
<path fill-rule="evenodd" clip-rule="evenodd" d="M310.088 166.388L262 157.37C265.146 144.436 267.079 127.978 266.982 110L273.067 110.953C274.291 120.379 274.809 129.155 274.688 136.873L298.895 136.082C299.509 136.919 300.106 137.664 300.755 138.422C301.464 139.255 302.185 140.084 302.948 140.88C304.475 142.471 306.116 143.983 307.94 145.393C308.321 145.68 308.709 145.965 309.107 146.246L310.088 166.388ZM311.633 160.817L310.983 147.474C311.696 147.902 312.445 148.306 313.246 148.675C312.84 153.106 312.307 157.309 311.633 160.817ZM313.913 139.292C313.414 139.062 312.912 138.811 312.413 138.545C311.774 138.21 311.135 137.852 310.496 137.474L310.41 135.705L314.083 135.585C314.035 136.806 313.978 138.046 313.913 139.292ZM308.623 136.316C308.354 136.143 308.085 135.967 307.816 135.79L308.596 135.764L308.623 136.316Z" fill="#DADFE4"/>
<path fill-rule="evenodd" clip-rule="evenodd" d="M310.624 166.708L310.492 166.683L309.511 146.541C310.112 146.964 310.734 147.377 311.387 147.769L312.037 161.112C311.621 163.279 311.151 165.18 310.624 166.708ZM310.9 137.769C310.275 137.399 309.65 137.012 309.027 136.611L309 136.059L310.814 136L310.9 137.769Z" fill="#B0C9DF"/>
<path fill-rule="evenodd" clip-rule="evenodd" d="M274.621 136.92C274.742 129.202 274.224 120.426 273 111L273.374 111.058C274.768 119.858 275.565 128.054 275.451 135.333L300.564 134.041L298.628 135.854C298.695 135.947 298.761 136.038 298.828 136.129L274.621 136.92ZM307.749 135.837C307.633 135.76 307.517 135.683 307.402 135.606C306.537 135.046 305.671 134.438 304.821 133.822L308.423 133.637L308.529 135.811L307.749 135.837ZM310.343 135.752L310.236 133.543L314.096 133.345C314.073 134.099 314.046 134.862 314.016 135.632L310.343 135.752Z" fill="#719CC6"/>
<path fill-rule="evenodd" clip-rule="evenodd" d="M308.11 135L308 133.083L309.889 133L310 134.948L308.11 135Z" fill="#83A9CE"/>
<path fill-rule="evenodd" clip-rule="evenodd" d="M275.085 135C275.199 127.803 274.399 119.7 273 111L313.785 117.29C314.03 120.855 314.074 126.612 313.872 133.035L309.998 133.23L308.178 133.323L304.563 133.506C303.794 132.956 303.038 132.401 302.305 131.864L300.29 133.723L275.085 135Z" fill="#3769A4"/>
<path fill-rule="evenodd" clip-rule="evenodd" d="M263 155.164L309.784 163C313.406 152.567 314.326 134.382 315 115.494L266.805 108C266.902 125.83 266.141 142.336 263 155.164Z" fill="#FFFFFE"/>
<path fill-rule="evenodd" clip-rule="evenodd" d="M376.861 112C377.807 113.013 378.605 113.911 379.421 114.898C380.233 115.862 381.024 116.838 381.803 117.828C383.355 119.808 384.841 121.847 386.246 123.96C387.637 126.088 389.007 128.236 390.221 130.526C391.456 132.803 392.614 135.146 393.563 137.668L393.928 138.604L394.019 138.842L394.133 139.186L394.351 139.877C394.466 140.315 394.561 140.739 394.647 141.158C394.711 141.557 394.785 141.967 394.832 142.353C395.01 143.899 395.022 145.31 394.979 146.675C394.899 149.397 394.537 151.951 394.121 154.461C393.232 159.477 391.959 164.241 390.308 169L385.111 167.788C385.497 163.058 385.851 158.236 385.98 153.592C386.059 151.274 386.025 148.972 385.874 146.837C385.794 145.773 385.652 144.755 385.453 143.903L385.303 143.308L385.138 142.83L384.576 141.668C382.686 137.777 380.183 133.949 377.517 130.237C376.177 128.379 374.767 126.554 373.342 124.742C372.632 123.835 371.905 122.938 371.169 122.057L369 119.488L376.861 112Z" fill="#BE5B52"/>
<path fill-rule="evenodd" clip-rule="evenodd" d="M385.714 166L382 169.86L389.247 174C389.247 174 391.754 170.772 390.772 167.472L385.714 166Z" fill="#BD5B52"/>
<path fill-rule="evenodd" clip-rule="evenodd" d="M377 175.631L384.017 178L389 174.089L381.795 170L377 175.631Z" fill="#BD5B52"/>
<path fill-rule="evenodd" clip-rule="evenodd" d="M396.973 192L351 181.973C353.454 165.844 356.73 150.46 361.027 136L407 146.026C402.94 160.086 399.731 175.645 396.973 192Z" fill="#3769A4"/>
<path fill-rule="evenodd" clip-rule="evenodd" d="M390.691 193L346 179.691L359.309 135L404 148.308L390.691 193Z" fill="#FFFFFE"/>
<path fill-rule="evenodd" clip-rule="evenodd" d="M349.998 82.0276C349.976 82.5798 349.735 83.0148 349.459 82.9996C349.184 82.9863 348.979 82.5265 349.002 81.9743C349.024 81.4221 349.265 80.9861 349.541 81.0003C349.816 81.0156 350.021 81.4754 349.998 82.0276Z" fill="#132529"/>
<path fill-rule="evenodd" clip-rule="evenodd" d="M350 83C350 83 348.52 86.5622 347 88.2449C347.964 89.3259 349.71 88.9288 349.71 88.9288L350 83Z" fill="#A92D2F"/>
<path fill-rule="evenodd" clip-rule="evenodd" d="M352.743 78.9971L352.933 78.9052C353.038 78.7981 353.017 78.6432 352.888 78.5586C351.589 77.7171 350.265 78.0716 350.208 78.0876C350.05 78.1317 349.964 78.2721 350.015 78.4009C350.067 78.5289 350.238 78.5969 350.394 78.5543C350.437 78.5434 351.475 78.2764 352.51 78.9471C352.578 78.9913 352.662 79.0072 352.743 78.9971Z" fill="#132529"/>
<path fill-rule="evenodd" clip-rule="evenodd" d="M368.166 91C367.059 96.1634 366.338 103.316 370 106.762C370 106.762 368.483 112 358.637 112C347.81 112 353.488 107.404 353.488 107.404C358.006 106.042 358.034 101.047 357.056 97.0355L368.166 91Z" fill="#BD5B52"/>
<path fill-rule="evenodd" clip-rule="evenodd" d="M344.089 353.338C343.969 353.338 343.858 353.349 343.759 353.377C343.601 353.419 343.491 353.497 343.422 353.615C343.299 353.826 343.341 353.931 343.384 353.992C343.713 354.457 345.532 354.468 346.872 354.278C346.209 353.936 344.93 353.338 344.089 353.338ZM345.212 354.733C344.289 354.733 343.398 354.605 343.105 354.191C343.002 354.046 342.923 353.799 343.129 353.446C343.244 353.248 343.427 353.114 343.674 353.048C344.875 352.721 347.372 354.155 347.477 354.216L347.559 354.391L347.422 354.531C346.962 354.623 346.072 354.733 345.212 354.733Z" fill="#3769A4"/>
<path fill-rule="evenodd" clip-rule="evenodd" d="M345.781 351.341L345.679 351.347C345.372 351.377 345.35 351.498 345.344 351.538C345.259 352.026 346.412 353.249 347.291 353.781C347.206 353.216 346.965 352.056 346.37 351.563C346.191 351.414 345.997 351.341 345.781 351.341ZM347.499 354.258L347.43 354.243C346.566 353.854 344.866 352.297 345.008 351.484C345.041 351.292 345.18 351.055 345.649 351.007C345.999 350.972 346.313 351.07 346.59 351.3C347.495 352.051 347.664 353.989 347.671 354.071L347.599 354.226L347.499 354.258Z" fill="#3769A4"/>
<path fill-rule="evenodd" clip-rule="evenodd" d="M356 354H348.524L348 337H355.477L356 354Z" fill="#BD5B52"/>
<path fill-rule="evenodd" clip-rule="evenodd" d="M348.287 353H356.054C356.345 353 356.594 353.2 356.653 353.481L357.977 359.736C358.115 360.384 357.609 360.998 356.938 360.986C354.137 360.939 350.09 360.777 346.57 360.777C342.452 360.777 339.855 361 335.026 361C332.107 361 331.334 358.079 332.559 357.815C338.139 356.61 341.722 356.482 346.568 353.549C347.094 353.23 347.674 353 348.287 353Z" fill="#0A1629"/>
<path fill-rule="evenodd" clip-rule="evenodd" d="M373.224 108C380.22 108.073 390 125.276 390 125.276L379.157 136C379.157 136 372.05 132.792 368.101 124.966C363.965 116.766 366.071 107.926 373.224 108Z" fill="#3769A4"/>
<path fill-rule="evenodd" clip-rule="evenodd" d="M379.376 136C379.619 130.863 380.053 125.456 380.772 119.965C380.84 119.448 380.873 118.935 380.874 118.428C380.875 114.551 378.961 111.044 376 109C382.153 112.751 389 125.737 389 125.737L387.493 127.343L379.376 136Z" fill="#3A81EB"/>
<path fill-rule="evenodd" clip-rule="evenodd" d="M340.443 115.018C338.885 122.739 337.767 138.595 341.603 170H379.798C380.091 164.912 377.636 142.71 380.896 118.872C381.776 112.438 376.959 106.617 370.481 106.26C370.341 106.252 370.202 106.245 370.062 106.238C365.186 106.003 358.122 105.848 353.826 106.239C352.033 106.402 350.271 106.661 348.701 106.938C344.552 107.672 341.277 110.886 340.443 115.018Z" fill="#3769A4"/>
<path fill-rule="evenodd" clip-rule="evenodd" d="M380.094 170.43H341.608C340.159 158.574 339.411 148.921 339.126 141.074C342.998 140.097 347.394 136.67 348.914 132.451C352.374 128.946 356.691 123.406 357.097 117.287C357.119 116.953 357.13 116.622 357.13 116.294C357.128 111.202 354.475 106.892 349.886 106.892C349.166 106.892 348.399 106.998 347.587 107.224C347.969 107.109 348.361 107.016 348.76 106.945C350.342 106.666 352.117 106.405 353.924 106.241C355.834 106.067 358.286 106 360.853 106C364.103 106 367.538 106.108 370.284 106.24C370.425 106.247 370.565 106.254 370.706 106.262C376.717 106.594 381.308 111.59 381.305 117.436C381.304 117.938 381.27 118.447 381.2 118.959C379.856 128.779 379.476 138.322 379.476 146.523C379.476 157.189 380.119 165.583 380.119 169.355C380.119 169.77 380.111 170.13 380.094 170.43ZM339.07 139.367C339.036 138.203 339.013 137.082 339 136C339.033 135.965 339.067 135.93 339.101 135.895C339.042 136.97 339.04 138.129 339.07 139.367Z" fill="#3F8CFF"/>
<path fill-rule="evenodd" clip-rule="evenodd" d="M338.528 142C338.505 141.316 338.485 140.648 338.472 140C338.488 140.655 338.507 141.323 338.528 142Z" fill="#9AA9B8"/>
<path fill-rule="evenodd" clip-rule="evenodd" d="M339.076 142C339.055 141.397 339.036 140.802 339.019 140.218C338.989 138.926 338.991 137.717 339.051 136.595C339.336 136.29 339.62 135.983 339.901 135.674C340.155 135.396 340.408 135.118 340.66 134.837L344.567 137.042C344.567 137.042 346.576 135.529 349 133C347.459 137.403 343.002 140.98 339.076 142Z" fill="#3576D6"/>
<path fill-rule="evenodd" clip-rule="evenodd" d="M355.198 345.589H355.195L354.936 337H354.94L355.198 345.589Z" fill="#BEBFBB"/>
<path fill-rule="evenodd" clip-rule="evenodd" d="M355 346H348.242V345.984L348 337H354.757L355 346Z" fill="#914642"/>
<path fill-rule="evenodd" clip-rule="evenodd" d="M369.931 81.7904C369.105 88.8503 368.987 93.0176 365.157 96.5053C359.398 101.75 350.699 98.1547 349.366 91.0224C348.167 84.6025 349.719 74.1374 356.91 71.6026C363.996 69.1056 370.758 74.7316 369.931 81.7904Z" fill="#BD5B52"/>
<path fill-rule="evenodd" clip-rule="evenodd" d="M355.07 84.3181C352.856 84.8133 351.854 79.6555 354.109 77.6748C352.104 76.6844 349.203 75.2503 348.237 73.0943C347.126 70.6184 350.141 67.6473 352.731 67.7711C351.895 66.1201 353.749 61.7021 359.028 63.3699C364.43 65.0753 366.807 67.6057 366.807 67.6057C366.807 67.6057 368.551 61.8843 372.227 66.5054C375.492 70.6124 374.2 74.1203 374.2 74.1203C374.2 74.1203 379.046 78.6651 377.793 82.0482C376.54 85.4323 373.783 86.6287 373.783 86.6287C373.783 86.6287 374.516 94.5813 368.62 96.4918C362.726 98.4032 359.014 94.4694 359.506 92.1995C355.696 92.4065 351.812 87.3715 355.07 84.3181Z" fill="#233862"/>
<path fill-rule="evenodd" clip-rule="evenodd" d="M357.965 84.2888C357.714 86.2465 356.688 88.0436 355.522 89.1894C353.77 90.9125 352.149 89.6799 352.013 87.4474C351.889 85.4379 352.654 82.1197 354.713 81.2339C356.741 80.3618 358.251 82.0499 357.965 84.2888Z" fill="#BD5B52"/>
<path fill-rule="evenodd" clip-rule="evenodd" d="M417 344.678L410.484 347L404 330.323L410.516 328L417 344.678Z" fill="#BD5B52"/>
<path fill-rule="evenodd" clip-rule="evenodd" d="M405.695 347.404C405.601 347.479 405.521 347.558 405.46 347.64C405.362 347.771 405.324 347.9 405.343 348.035C405.377 348.277 405.475 348.334 405.546 348.355C406.092 348.517 407.528 347.401 408.464 346.424C407.731 346.565 406.356 346.885 405.695 347.404ZM407.441 347.807C406.715 348.378 405.937 348.828 405.449 348.684C405.279 348.634 405.064 348.488 405.008 348.084C404.976 347.858 405.037 347.638 405.19 347.434C405.933 346.435 408.781 346.018 408.902 346L409.074 346.088L409.053 346.282C408.748 346.639 408.117 347.275 407.441 347.807Z" fill="#3769A4"/>
<path fill-rule="evenodd" clip-rule="evenodd" d="M405.583 345.533L405.506 345.601C405.284 345.815 405.342 345.923 405.361 345.958C405.596 346.395 407.259 346.643 408.279 346.518C407.862 346.125 406.955 345.363 406.183 345.344C405.951 345.337 405.753 345.4 405.583 345.533ZM408.737 346.764L408.673 346.795C407.754 347.023 405.455 346.851 405.064 346.123C404.972 345.952 404.934 345.68 405.273 345.353C405.526 345.108 405.834 344.991 406.193 345C407.37 345.031 408.701 346.45 408.757 346.511L408.796 346.677L408.737 346.764Z" fill="#3769A4"/>
<path fill-rule="evenodd" clip-rule="evenodd" d="M409.51 344.89L415.58 340.136C415.807 339.957 416.135 339.955 416.369 340.129L421.586 344.006C422.126 344.409 422.142 345.179 421.61 345.581C419.39 347.261 415.106 350.7 412.489 353.016C409.429 355.724 411.811 353.913 408.223 357.089C406.053 359.009 403.399 357.449 404.121 356.455C407.409 351.932 408.109 349.24 408.533 346.354C408.619 345.766 409.031 345.266 409.51 344.89Z" fill="#0A1629"/>
<path fill-rule="evenodd" clip-rule="evenodd" d="M304 132.815L301.314 127L294 131.552C294 131.552 296.41 136.504 301.4 135.958L304 132.815Z" fill="#BD5B52"/>
<path fill-rule="evenodd" clip-rule="evenodd" d="M294.626 125.599L292.876 127.077C291.74 128.035 291.704 129.746 292.796 130.751L294.155 132L302 127.248L297.293 125.21C296.402 124.826 295.364 124.976 294.626 125.599Z" fill="#BD5B52"/>
<path fill-rule="evenodd" clip-rule="evenodd" d="M407.105 339.625L407 339.354L407.105 339.625ZM413.499 337.331L411.826 333.001L411.829 333L413.502 337.33L413.499 337.331Z" fill="#BEBFBB"/>
<path fill-rule="evenodd" clip-rule="evenodd" d="M407.35 340L407.241 339.714L406 336.448L412.26 333L414 337.576L407.35 340Z" fill="#914642"/>
<path fill-rule="evenodd" clip-rule="evenodd" d="M355 171C355 171 367.066 226.417 371.681 246.988C376.735 269.516 403.326 338 403.326 338L415 331.687C415 331.687 402.512 277.957 393.384 248.646C390.074 224.417 379.955 171 379.955 171H355Z" fill="#0A1629"/>
<path fill-rule="evenodd" clip-rule="evenodd" d="M400 334.4L402.418 339L417 333.484L415.84 329L400 334.4Z" fill="#3F8CFF"/>
<path fill-rule="evenodd" clip-rule="evenodd" d="M371.614 248C371.539 247.657 371.461 247.324 371.385 247C371.387 247.001 371.388 247.001 371.39 247.002C371.461 247.3 371.536 247.606 371.615 247.919C371.614 247.946 371.614 247.974 371.614 248Z" fill="#A0A29F"/>
<path fill-rule="evenodd" clip-rule="evenodd" d="M371.568 247.795C371.567 247.794 371.565 247.794 371.563 247.793C371.518 247.593 371.473 247.397 371.431 247.205H371.433C371.477 247.398 371.521 247.595 371.568 247.795Z" fill="#939692"/>
<path fill-rule="evenodd" clip-rule="evenodd" d="M371.905 247H371.904C371.898 246.974 371.892 246.946 371.887 246.92C371.642 245.717 371.379 244.406 371.094 243H371.097C371.38 244.406 371.646 245.719 371.89 246.923C371.895 246.948 371.9 246.975 371.905 247Z" fill="#1D5697"/>
<path fill-rule="evenodd" clip-rule="evenodd" d="M371 243H370.998C370.69 241.457 370.355 239.781 370 238C370.355 239.782 370.69 241.456 371 243Z" fill="#8593A0"/>
<path fill-rule="evenodd" clip-rule="evenodd" d="M371.985 248C371.909 247.678 371.837 247.363 371.768 247.056C371.723 246.855 371.679 246.657 371.637 246.463C371.633 246.44 371.627 246.416 371.622 246.393C371.386 245.297 371.129 244.102 370.856 242.822C370.502 241.174 370.121 239.386 369.716 237.484C367.213 225.707 363.829 209.617 361 196.14C361.28 196.045 361.581 196 361.896 196C362.062 196 362.232 196.012 362.405 196.037C371.146 197.247 372.144 229.19 371.985 248Z" fill="black"/>
<path fill-rule="evenodd" clip-rule="evenodd" d="M341.621 171C341.621 171 338.552 224.707 339.056 246.613C339.579 269.397 346.009 344 346.009 344H358.237C358.237 344 360.236 270.728 361.068 248.351C361.976 223.957 367 171 367 171H341.621Z" fill="#0A1629"/>
<path fill-rule="evenodd" clip-rule="evenodd" d="M343 339L343.627 344H358.538L359 339.538L343 339Z" fill="#3F8CFF"/>
<path fill-rule="evenodd" clip-rule="evenodd" d="M352 119.367C350.343 122.325 348.444 125.126 346.448 127.827C344.425 130.509 342.241 133.047 339.948 135.455C337.662 137.871 335.257 140.15 332.789 142.314C330.355 144.48 327.729 146.546 325.408 148.441L324.584 149.112L323.911 149.354C322.117 149.993 320.294 150.103 318.734 149.921C317.163 149.743 315.79 149.336 314.554 148.851C312.083 147.866 310.094 146.546 308.252 145.171C306.427 143.771 304.784 142.271 303.256 140.692C302.493 139.902 301.771 139.079 301.062 138.253C300.342 137.419 299.687 136.602 299 135.658L302.947 131.993C304.487 133.128 306.134 134.355 307.781 135.412C309.42 136.497 311.076 137.516 312.728 138.375C314.366 139.24 316.038 139.941 317.501 140.3C318.229 140.484 318.895 140.555 319.396 140.527C319.905 140.494 320.199 140.386 320.346 140.274L318.85 141.187C321.292 138.918 323.501 136.9 325.705 134.764C327.885 132.639 329.976 130.465 331.972 128.23C333.951 125.982 335.861 123.695 337.618 121.319C339.394 118.954 340.99 116.488 342.522 114L352 119.367Z" fill="#BE5B52"/>
<path fill-rule="evenodd" clip-rule="evenodd" d="M356.967 117.242C356.281 127.438 344.409 136 344.409 136L329 127.677C329 127.677 334.676 115.662 342.321 109.99C351.766 102.984 357.489 109.482 356.967 117.242Z" fill="#3769A4"/>
<path fill-rule="evenodd" clip-rule="evenodd" d="M344.409 136L330.812 128.656L329 127.677C329 127.677 334.676 115.662 342.321 109.99C345.157 107.887 347.658 107 349.754 107C354.344 107 356.998 111.247 357 116.264C357 116.587 356.989 116.913 356.967 117.242C356.281 127.439 344.409 136 344.409 136Z" fill="#3F8CFF"/>
</g>
</g>
<defs>
<filter id="filter0_d_216_10920" x="0" y="0" width="508" height="381" filterUnits="userSpaceOnUse" color-interpolation-filters="sRGB">
<feFlood flood-opacity="0" result="BackgroundImageFix"/>
<feColorMatrix in="SourceAlpha" type="matrix" values="0 0 0 0 0 0 0 0 0 0 0 0 0 0 0 0 0 0 127 0" result="hardAlpha"/>
<feOffset dy="4"/>
<feGaussianBlur stdDeviation="2"/>
<feComposite in2="hardAlpha" operator="out"/>
<feColorMatrix type="matrix" values="0 0 0 0 0 0 0 0 0 0 0 0 0 0 0 0 0 0 0.25 0"/>
<feBlend mode="normal" in2="BackgroundImageFix" result="effect1_dropShadow_216_10920"/>
<feBlend mode="normal" in="SourceGraphic" in2="effect1_dropShadow_216_10920" result="shape"/>
</filter>
<clipPath id="clip0_216_10920">
<rect width="500" height="373" fill="white" transform="translate(4)"/>
</clipPath>
</defs>
</svg>
